<svg width="1180" height="610" viewBox="0 0 1180 610" xmlns="http://www.w3.org/2000/svg" xmlns:xlink="http://www.w3.org/1999/xlink">
<defs>

    <linearGradient id="accentGrad-dark" x1="0%" y1="0%" x2="100%" y2="100%">
      <stop offset="0%" stop-color="#7C3AED">
        <animate attributeName="stop-color" values="#7C3AED;#22D3EE;#10B981;#7C3AED" dur="8s" repeatCount="indefinite"/>
      </stop>
      <stop offset="50%" stop-color="#22D3EE">
        <animate attributeName="stop-color" values="#22D3EE;#10B981;#7C3AED;#22D3EE" dur="8s" repeatCount="indefinite"/>
      </stop>
      <stop offset="100%" stop-color="#10B981">
        <animate attributeName="stop-color" values="#10B981;#7C3AED;#22D3EE;#10B981" dur="8s" repeatCount="indefinite"/>
      </stop>
    </linearGradient>

    <linearGradient id="asciiGrad-dark" x1="0%" y1="0%" x2="100%" y2="100%">
      <stop offset="0%" stop-color="#22D3EE">
        <animate attributeName="stop-color" values="#22D3EE;#7C3AED;#22D3EE" dur="6s" repeatCount="indefinite"/>
      </stop>
      <stop offset="100%" stop-color="#7C3AED">
        <animate attributeName="stop-color" values="#7C3AED;#22D3EE;#7C3AED" dur="6s" repeatCount="indefinite"/>
      </stop>
    </linearGradient>

    <radialGradient id="blob1-dark" cx="50%" cy="50%" r="50%">
      <stop offset="0%" stop-color="#3B82F6" stop-opacity="0.16"/>
      <stop offset="100%" stop-color="#3B82F6" stop-opacity="0"/>
    </radialGradient>
    <radialGradient id="blob2-dark" cx="50%" cy="50%" r="50%">
      <stop offset="0%" stop-color="#7C3AED" stop-opacity="0.16"/>
      <stop offset="100%" stop-color="#7C3AED" stop-opacity="0"/>
    </radialGradient>
    <radialGradient id="blob3-dark" cx="50%" cy="50%" r="50%">
      <stop offset="0%" stop-color="#10B981" stop-opacity="0.16"/>
      <stop offset="100%" stop-color="#10B981" stop-opacity="0"/>
    </radialGradient>

    <linearGradient id="scanGrad-dark" x1="0%" y1="0%" x2="0%" y2="100%">
      <stop offset="0%" stop-color="#7C3AED" stop-opacity="0"/>
      <stop offset="50%" stop-color="#7C3AED" stop-opacity="0.35"/>
      <stop offset="100%" stop-color="#7C3AED" stop-opacity="0"/>
    </linearGradient>

    <filter id="glow-dark" x="-60%" y="-60%" width="220%" height="220%">
      <feGaussianBlur stdDeviation="4" result="blur"/>
      <feMerge>
        <feMergeNode in="blur"/>
        <feMergeNode in="SourceGraphic"/>
      </feMerge>
    </filter>

    <filter id="softBlur-dark" x="-50%" y="-50%" width="200%" height="200%">
      <feGaussianBlur stdDeviation="18"/>
    </filter>

    <filter id="noise-dark">
      <feTurbulence type="fractalNoise" baseFrequency="0.9" numOctaves="2" stitchTiles="stitch" result="n"/>
      <feColorMatrix in="n" type="matrix" values="0 0 0 0 1  0 0 0 0 1  0 0 0 0 1  0 0 0 0.035 0"/>
    </filter>

    <clipPath id="cardClip-dark">
      <rect x="0" y="0" width="1180" height="610" rx="28" ry="28"/>
    </clipPath>
    <clipPath id="leftPanelClip-dark">
      <rect x="24" y="24" width="430" height="562" rx="20" ry="20"/>
    </clipPath>
    
</defs>
<g clip-path="url(#cardClip-dark)">
<rect x="0" y="0" width="1180" height="610" fill="#030712"/>

    <circle cx="150" cy="120" r="220" fill="url(#blob1-dark)" filter="url(#softBlur-dark)">
      <animateTransform attributeName="transform" type="translate" values="0,0;40,30;0,0" dur="18s" repeatCount="indefinite"/>
    </circle>
    <circle cx="950" cy="480" r="260" fill="url(#blob2-dark)" filter="url(#softBlur-dark)">
      <animateTransform attributeName="transform" type="translate" values="0,0;-30,-40;0,0" dur="22s" repeatCount="indefinite"/>
    </circle>
    <circle cx="800" cy="80" r="180" fill="url(#blob3-dark)" filter="url(#softBlur-dark)">
      <animateTransform attributeName="transform" type="translate" values="0,0;-20,35;0,0" dur="16s" repeatCount="indefinite"/>
    </circle>
    
<rect x="0" y="0" width="1180" height="610" filter="url(#noise-dark)"/>

    <rect x="0" y="-60" width="1180" height="60" fill="url(#scanGrad-dark)">
      <animateTransform attributeName="transform" type="translate" values="0,-60;0,670" dur="7s" repeatCount="indefinite"/>
    </rect>
    

        <circle cx="703" cy="620" r="2.5" fill="#22D3EE" opacity="0">
          <animate attributeName="opacity" values="0;0.6;0" keyTimes="0;0.5;1" dur="8.4s" begin="0.3s" repeatCount="indefinite"/>
          <animateTransform attributeName="transform" type="translate" values="0,0;0,-650" dur="8.4s" begin="0.3s" repeatCount="indefinite"/>
        </circle>

        <circle cx="1137" cy="620" r="1.3" fill="#22D3EE" opacity="0">
          <animate attributeName="opacity" values="0;0.6;0" keyTimes="0;0.5;1" dur="9.5s" begin="5.5s" repeatCount="indefinite"/>
          <animateTransform attributeName="transform" type="translate" values="0,0;0,-650" dur="9.5s" begin="5.5s" repeatCount="indefinite"/>
        </circle>

        <circle cx="479" cy="620" r="1.3" fill="#22D3EE" opacity="0">
          <animate attributeName="opacity" values="0;0.6;0" keyTimes="0;0.5;1" dur="8.6s" begin="0.4s" repeatCount="indefinite"/>
          <animateTransform attributeName="transform" type="translate" values="0,0;0,-650" dur="8.6s" begin="0.4s" repeatCount="indefinite"/>
        </circle>

        <circle cx="225" cy="620" r="2.0" fill="#22D3EE" opacity="0">
          <animate attributeName="opacity" values="0;0.6;0" keyTimes="0;0.5;1" dur="6.4s" begin="3.4s" repeatCount="indefinite"/>
          <animateTransform attributeName="transform" type="translate" values="0,0;0,-650" dur="6.4s" begin="3.4s" repeatCount="indefinite"/>
        </circle>

        <circle cx="497" cy="620" r="2.1" fill="#22D3EE" opacity="0">
          <animate attributeName="opacity" values="0;0.6;0" keyTimes="0;0.5;1" dur="9.5s" begin="0.4s" repeatCount="indefinite"/>
          <animateTransform attributeName="transform" type="translate" values="0,0;0,-650" dur="9.5s" begin="0.4s" repeatCount="indefinite"/>
        </circle>

        <circle cx="852" cy="620" r="1.3" fill="#22D3EE" opacity="0">
          <animate attributeName="opacity" values="0;0.6;0" keyTimes="0;0.5;1" dur="7.3s" begin="3.3s" repeatCount="indefinite"/>
          <animateTransform attributeName="transform" type="translate" values="0,0;0,-650" dur="7.3s" begin="3.3s" repeatCount="indefinite"/>
        </circle>

        <circle cx="312" cy="620" r="1.6" fill="#22D3EE" opacity="0">
          <animate attributeName="opacity" values="0;0.6;0" keyTimes="0;0.5;1" dur="6.9s" begin="0.7s" repeatCount="indefinite"/>
          <animateTransform attributeName="transform" type="translate" values="0,0;0,-650" dur="6.9s" begin="0.7s" repeatCount="indefinite"/>
        </circle>

        <circle cx="671" cy="620" r="2.0" fill="#22D3EE" opacity="0">
          <animate attributeName="opacity" values="0;0.6;0" keyTimes="0;0.5;1" dur="10.1s" begin="0.6s" repeatCount="indefinite"/>
          <animateTransform attributeName="transform" type="translate" values="0,0;0,-650" dur="10.1s" begin="0.6s" repeatCount="indefinite"/>
        </circle>

        <circle cx="424" cy="620" r="1.7" fill="#22D3EE" opacity="0">
          <animate attributeName="opacity" values="0;0.6;0" keyTimes="0;0.5;1" dur="9.3s" begin="0.4s" repeatCount="indefinite"/>
          <animateTransform attributeName="transform" type="translate" values="0,0;0,-650" dur="9.3s" begin="0.4s" repeatCount="indefinite"/>
        </circle>

        <circle cx="162" cy="620" r="2.1" fill="#22D3EE" opacity="0">
          <animate attributeName="opacity" values="0;0.6;0" keyTimes="0;0.5;1" dur="9.0s" begin="3.2s" repeatCount="indefinite"/>
          <animateTransform attributeName="transform" type="translate" values="0,0;0,-650" dur="9.0s" begin="3.2s" repeatCount="indefinite"/>
        </circle>

        <circle cx="683" cy="620" r="1.9" fill="#22D3EE" opacity="0">
          <animate attributeName="opacity" values="0;0.6;0" keyTimes="0;0.5;1" dur="11.5s" begin="2.2s" repeatCount="indefinite"/>
          <animateTransform attributeName="transform" type="translate" values="0,0;0,-650" dur="11.5s" begin="2.2s" repeatCount="indefinite"/>
        </circle>

        <circle cx="548" cy="620" r="2.3" fill="#22D3EE" opacity="0">
          <animate attributeName="opacity" values="0;0.6;0" keyTimes="0;0.5;1" dur="10.2s" begin="1.5s" repeatCount="indefinite"/>
          <animateTransform attributeName="transform" type="translate" values="0,0;0,-650" dur="10.2s" begin="1.5s" repeatCount="indefinite"/>
        </circle>

        <circle cx="654" cy="620" r="1.9" fill="#22D3EE" opacity="0">
          <animate attributeName="opacity" values="0;0.6;0" keyTimes="0;0.5;1" dur="11.3s" begin="4.4s" repeatCount="indefinite"/>
          <animateTransform attributeName="transform" type="translate" values="0,0;0,-650" dur="11.3s" begin="4.4s" repeatCount="indefinite"/>
        </circle>

        <circle cx="629" cy="620" r="2.1" fill="#22D3EE" opacity="0">
          <animate attributeName="opacity" values="0;0.6;0" keyTimes="0;0.5;1" dur="6.4s" begin="3.1s" repeatCount="indefinite"/>
          <animateTransform attributeName="transform" type="translate" values="0,0;0,-650" dur="6.4s" begin="3.1s" repeatCount="indefinite"/>
        </circle>

    <rect x="1.5" y="1.5" width="1177" height="607" rx="28" ry="28" fill="none" stroke="rgba(255,255,255,.08)" stroke-width="1.5"/>
    <rect x="1.5" y="1.5" width="1177" height="607" rx="28" ry="28" fill="none" stroke="url(#accentGrad-dark)" stroke-width="1.5" stroke-dasharray="60 2400" opacity="0.9">
      <animate attributeName="stroke-dashoffset" values="0;-2460" dur="9s" repeatCount="indefinite"/>
    </rect>
    
<g clip-path="url(#leftPanelClip-dark)">
<rect x="24" y="24" width="430" height="562" rx="20" ry="20" fill="#0F172A" fill-opacity="0.72"/>
<rect x="24" y="24" width="430" height="562" rx="20" ry="20" fill="none" stroke="rgba(255,255,255,.08)" stroke-width="1"/>
<path d="M 24 44 Q 144 14 454 84 L 454 24 L 24 24 Z" fill="rgba(255,255,255,0.05)"/>
<g transform="translate(58,94)">
  <animateTransform attributeName="transform" type="translate" values="58,94; 58,84; 58,94" dur="5s" repeatCount="indefinite" additive="sum"/>
<text x="0" y="0" font-family="Consolas, Menlo, monospace" font-size="15" fill="url(#asciiGrad-dark)" filter="url(#glow-dark)" opacity="1"><animate attributeName="opacity" values="0;0;1;1" keyTimes="0;0.0;0.03;1" dur="14s" begin="0s" repeatCount="indefinite" fill="freeze"/>   ╭────────────────╮</text>
<text x="0" y="22" font-family="Consolas, Menlo, monospace" font-size="15" fill="url(#asciiGrad-dark)" filter="url(#glow-dark)" opacity="1"><animate attributeName="opacity" values="0;0;1;1" keyTimes="0;0.0129;0.0429;1" dur="14s" begin="0s" repeatCount="indefinite" fill="freeze"/>   │   &lt; DEV  /&gt;    │</text>
<text x="0" y="44" font-family="Consolas, Menlo, monospace" font-size="15" fill="url(#asciiGrad-dark)" filter="url(#glow-dark)" opacity="1"><animate attributeName="opacity" values="0;0;1;1" keyTimes="0;0.0257;0.0557;1" dur="14s" begin="0s" repeatCount="indefinite" fill="freeze"/>   │  ┌──────────┐  │</text>
<text x="0" y="66" font-family="Consolas, Menlo, monospace" font-size="15" fill="url(#asciiGrad-dark)" filter="url(#glow-dark)" opacity="1"><animate attributeName="opacity" values="0;0;1;1" keyTimes="0;0.0386;0.0686;1" dur="14s" begin="0s" repeatCount="indefinite" fill="freeze"/>   │  │ 01 10 01 │  │</text>
<text x="0" y="88" font-family="Consolas, Menlo, monospace" font-size="15" fill="url(#asciiGrad-dark)" filter="url(#glow-dark)" opacity="1"><animate attributeName="opacity" values="0;0;1;1" keyTimes="0;0.0514;0.0814;1" dur="14s" begin="0s" repeatCount="indefinite" fill="freeze"/>   │  │ 10 01 10 │  │</text>
<text x="0" y="110" font-family="Consolas, Menlo, monospace" font-size="15" fill="url(#asciiGrad-dark)" filter="url(#glow-dark)" opacity="1"><animate attributeName="opacity" values="0;0;1;1" keyTimes="0;0.0643;0.0943;1" dur="14s" begin="0s" repeatCount="indefinite" fill="freeze"/>   │  │ 01 11 00 │  │</text>
<text x="0" y="132" font-family="Consolas, Menlo, monospace" font-size="15" fill="url(#asciiGrad-dark)" filter="url(#glow-dark)" opacity="1"><animate attributeName="opacity" values="0;0;1;1" keyTimes="0;0.0771;0.1071;1" dur="14s" begin="0s" repeatCount="indefinite" fill="freeze"/>   │  └──────────┘  │</text>
<text x="0" y="154" font-family="Consolas, Menlo, monospace" font-size="15" fill="url(#asciiGrad-dark)" filter="url(#glow-dark)" opacity="1"><animate attributeName="opacity" values="0;0;1;1" keyTimes="0;0.09;0.12;1" dur="14s" begin="0s" repeatCount="indefinite" fill="freeze"/>   │   {  BUILD }   │</text>
<text x="0" y="176" font-family="Consolas, Menlo, monospace" font-size="15" fill="url(#asciiGrad-dark)" filter="url(#glow-dark)" opacity="1"><animate attributeName="opacity" values="0;0;1;1" keyTimes="0;0.1029;0.1329;1" dur="14s" begin="0s" repeatCount="indefinite" fill="freeze"/>   ╰────────────────╯</text>
<text x="0" y="232" font-family="Consolas, Menlo, monospace" font-size="30" font-weight="700" letter-spacing="4" fill="url(#asciiGrad-dark)" filter="url(#glow-dark)" opacity="1"><animate attributeName="opacity" values="0;0;1;1" keyTimes="0;0.1371;0.1671;1" dur="14s" begin="0s" repeatCount="indefinite" fill="freeze"/>SUJEY</text>
<text x="2" y="258" font-family="Consolas, Menlo, monospace" font-size="13" fill="#94A3B8" opacity="1"><animate attributeName="opacity" values="0;0;1;1" keyTimes="0;0.1586;0.1886;1" dur="14s" begin="0s" repeatCount="indefinite" fill="freeze"/>&lt; H Sujey /&gt;</text>
<rect x="6" y="266" width="10" height="2" fill="#7C3AED"><animate attributeName="opacity" values="1;1;0;0" keyTimes="0;0.5;0.5;1" dur="1s" repeatCount="indefinite"/></rect>
</g>
</g>
<clipPath id="rightPanelClip-dark"><rect x="474" y="24" width="682" height="562" rx="20" ry="20"/></clipPath>
<g clip-path="url(#rightPanelClip-dark)">
<rect x="474" y="24" width="682" height="562" rx="20" ry="20" fill="#0F172A" fill-opacity="0.72"/>
<rect x="474" y="24" width="682" height="562" rx="20" ry="20" fill="none" stroke="rgba(255,255,255,.08)" stroke-width="1"/>
<rect x="474" y="24" width="682" height="42" rx="20" ry="20" fill="rgba(127,127,127,0.06)"/>
<rect x="474" y="44" width="682" height="22" fill="rgba(127,127,127,0.06)"/>
<circle cx="498" cy="45.0" r="6" fill="#FF5F56"/>
<circle cx="518" cy="45.0" r="6" fill="#FFBD2E"/>
<circle cx="538" cy="45.0" r="6" fill="#27C93F"/>
<text x="815.0" y="49.0" text-anchor="middle" font-family="Consolas, Menlo, monospace" font-size="12" fill="#94A3B8">~/portfolio — zsh</text>
<clipPath id="gclip1-dark"><rect x="0" y="0" height="34" width="120"><animate attributeName="width" values="0;120" dur="0.8s" begin="0.3s" fill="freeze"/></rect></clipPath>
<g transform="translate(508,90)" clip-path="url(#gclip1-dark)">
<text x="0" y="24" font-family="Segoe UI, Arial, sans-serif" font-size="24" font-weight="600" fill="#F8FAFC">Hi 👋</text>
</g>
<clipPath id="gclip2-dark"><rect x="0" y="0" height="44" width="280"><animate attributeName="width" values="0;280" dur="0.9s" begin="1.2s" fill="freeze"/></rect></clipPath>
<g transform="translate(508,130)" clip-path="url(#gclip2-dark)">
<text x="0" y="30" font-family="Segoe UI, Arial, sans-serif" font-size="32" font-weight="800" fill="url(#accentGrad-dark)">I'm Sujey</text>
</g>
<g transform="translate(508,174)">
<text x="0" y="6" font-family="Consolas, Menlo, monospace" font-size="18" fill="#94A3B8">&gt;&#160;</text>
<clipPath id="rclip0-dark">
          <rect x="0" y="0" height="26" width="208.0">
            <animate attributeName="width" calcMode="discrete"
              values="0;0;208.0;208.0;0;0"
              keyTimes="0;0.0;0.06;0.1533;0.1933;1"
              dur="15.0s" begin="0s" repeatCount="indefinite"/>
          </rect>
        </clipPath>
<g clip-path="url(#rclip0-dark)"><text x="18" y="6" font-family="Consolas, Menlo, monospace" font-size="18" fill="#F8FAFC">Full Stack Developer</text></g>
<clipPath id="rclip1-dark">
          <rect x="0" y="0" height="26" width="0">
            <animate attributeName="width" calcMode="discrete"
              values="0;0;208.0;208.0;0;0"
              keyTimes="0;0.2;0.26;0.3533;0.3933;1"
              dur="15.0s" begin="0s" repeatCount="indefinite"/>
          </rect>
        </clipPath>
<g clip-path="url(#rclip1-dark)"><text x="18" y="6" font-family="Consolas, Menlo, monospace" font-size="18" fill="#F8FAFC">Blockchain Developer</text></g>
<clipPath id="rclip2-dark">
          <rect x="0" y="0" height="26" width="0">
            <animate attributeName="width" calcMode="discrete"
              values="0;0;176.8;176.8;0;0"
              keyTimes="0;0.4;0.46;0.5533;0.5933;1"
              dur="15.0s" begin="0s" repeatCount="indefinite"/>
          </rect>
        </clipPath>
<g clip-path="url(#rclip2-dark)"><text x="18" y="6" font-family="Consolas, Menlo, monospace" font-size="18" fill="#F8FAFC">Android Developer</text></g>
<clipPath id="rclip3-dark">
          <rect x="0" y="0" height="26" width="0">
            <animate attributeName="width" calcMode="discrete"
              values="0;0;176.8;176.8;0;0"
              keyTimes="0;0.6;0.66;0.7533;0.7933;1"
              dur="15.0s" begin="0s" repeatCount="indefinite"/>
          </rect>
        </clipPath>
<g clip-path="url(#rclip3-dark)"><text x="18" y="6" font-family="Consolas, Menlo, monospace" font-size="18" fill="#F8FAFC">Hackathon Builder</text></g>
<clipPath id="rclip4-dark">
          <rect x="0" y="0" height="26" width="0">
            <animate attributeName="width" calcMode="discrete"
              values="0;0;135.2;135.2;0;0"
              keyTimes="0;0.8;0.86;0.9533;0.9933;1"
              dur="15.0s" begin="0s" repeatCount="indefinite"/>
          </rect>
        </clipPath>
<g clip-path="url(#rclip4-dark)"><text x="18" y="6" font-family="Consolas, Menlo, monospace" font-size="18" fill="#F8FAFC">GDG Organizer</text></g>
<rect x="14" y="-14" width="9" height="20" fill="#7C3AED"><animate attributeName="opacity" values="1;1;0;0" keyTimes="0;0.5;0.5;1" dur="0.9s" repeatCount="indefinite"/></rect>
</g>
<line x1="508" y1="202" x2="1122" y2="202" stroke="rgba(255,255,255,.08)" stroke-width="1"/>
<g transform="translate(508,236)" opacity="1">
  <animate attributeName="opacity" values="0;0;1;1" keyTimes="0;0.1857;0.2157;1" dur="14s" begin="0s" repeatCount="indefinite" fill="freeze"/>
  <circle cx="9" cy="-5" r="14" fill="#22D3EE" opacity="0.10"/>
  <path d="M0,-8 a8,8 0 1,1 -0.01,0 M0,-8 a3,3 0 1,1 -0.01,0" transform="translate(9,-5)" fill="none" stroke="url(#accentGrad-dark)" stroke-width="1.6" stroke-linejoin="round" stroke-linecap="round"/>
  <text x="30" y="0" font-family="Segoe UI, Arial, sans-serif" font-size="15" fill="#F8FAFC">Chennai, Tamil Nadu, India</text>
</g>
<g transform="translate(508,268)" opacity="1">
  <animate attributeName="opacity" values="0;0;1;1" keyTimes="0;0.2014;0.2314;1" dur="14s" begin="0s" repeatCount="indefinite" fill="freeze"/>
  <circle cx="9" cy="-5" r="14" fill="#22D3EE" opacity="0.10"/>
  <path d="M-9,-3 L0,-8 L9,-3 L0,2 Z M-9,-3 L-9,4" transform="translate(9,-5)" fill="none" stroke="url(#accentGrad-dark)" stroke-width="1.6" stroke-linejoin="round" stroke-linecap="round"/>
  <text x="30" y="0" font-family="Segoe UI, Arial, sans-serif" font-size="15" fill="#F8FAFC">B.E. CSE, Chennai Institute of Technology</text>
</g>
<g transform="translate(508,300)" opacity="1">
  <animate attributeName="opacity" values="0;0;1;1" keyTimes="0;0.2171;0.2471;1" dur="14s" begin="0s" repeatCount="indefinite" fill="freeze"/>
  <circle cx="9" cy="-5" r="14" fill="#22D3EE" opacity="0.10"/>
  <path d="M0,-9 L2,-2 L9,-2 L3,2 L5,9 L0,4 L-5,9 L-3,2 L-9,-2 L-2,-2 Z" transform="translate(9,-5)" fill="none" stroke="url(#accentGrad-dark)" stroke-width="1.6" stroke-linejoin="round" stroke-linecap="round"/>
  <text x="30" y="0" font-family="Segoe UI, Arial, sans-serif" font-size="15" fill="#F8FAFC">GDG on Campus CIT &amp; Hackathon Projects</text>
</g>
<g transform="translate(508,332)" opacity="1">
  <animate attributeName="opacity" values="0;0;1;1" keyTimes="0;0.2329;0.2629;1" dur="14s" begin="0s" repeatCount="indefinite" fill="freeze"/>
  <circle cx="9" cy="-5" r="14" fill="#22D3EE" opacity="0.10"/>
  <path d="M0,-8 a8,8 0 1,0 0.01,0 M-8,0 L8,0 M0,-8 a4,8 0 1,0 0.01,0 M0,-8 a12,8 0 1,1 0,16" transform="translate(9,-5)" fill="none" stroke="url(#accentGrad-dark)" stroke-width="1.6" stroke-linejoin="round" stroke-linecap="round"/>
  <text x="30" y="0" font-family="Segoe UI, Arial, sans-serif" font-size="15" fill="#F8FAFC">yourportfolio.dev</text>
</g>
<g transform="translate(508,364)" opacity="1">
  <animate attributeName="opacity" values="0;0;1;1" keyTimes="0;0.2486;0.2786;1" dur="14s" begin="0s" repeatCount="indefinite" fill="freeze"/>
  <circle cx="9" cy="-5" r="14" fill="#22D3EE" opacity="0.10"/>
  <path d="M-9,-6 L9,-6 L9,6 L-9,6 Z M-9,-6 L0,1 L9,-6" transform="translate(9,-5)" fill="none" stroke="url(#accentGrad-dark)" stroke-width="1.6" stroke-linejoin="round" stroke-linecap="round"/>
  <text x="30" y="0" font-family="Segoe UI, Arial, sans-serif" font-size="15" fill="#F8FAFC">your.email@example.com</text>
</g>
<text x="508" y="414" font-family="Segoe UI, Arial, sans-serif" font-size="13" font-weight="700" letter-spacing="1.5" fill="#94A3B8">SKILLS</text>
<g transform="translate(508,434)" opacity="1">
  <animate attributeName="opacity" values="0;0;1;1" keyTimes="0;0.2857;0.3157;1" dur="14s" begin="0s" repeatCount="indefinite" fill="freeze"/>
  <rect x="0" y="0" width="68.0" height="30" rx="15.0" fill="rgba(255,255,255,.05)" stroke="rgba(255,255,255,.12)" stroke-width="1"/>
  <rect x="0" y="0" width="68.0" height="30" rx="15.0" fill="none" stroke="url(#accentGrad-dark)" stroke-width="1" opacity="0.55"/>
  <circle cx="14" cy="15.0" r="3" fill="url(#accentGrad-dark)">
    <animate attributeName="r" values="3;4;3" dur="2.4s" begin="4.0s" repeatCount="indefinite"/>
  </circle>
  <text x="24" y="19.5" font-family="Segoe UI, Arial, sans-serif" font-size="12.5" fill="#F8FAFC">React</text>
</g>
<g transform="translate(586.0,434)" opacity="1">
  <animate attributeName="opacity" values="0;0;1;1" keyTimes="0;0.2943;0.3243;1" dur="14s" begin="0s" repeatCount="indefinite" fill="freeze"/>
  <rect x="0" y="0" width="121.2" height="30" rx="15.0" fill="rgba(255,255,255,.05)" stroke="rgba(255,255,255,.12)" stroke-width="1"/>
  <rect x="0" y="0" width="121.2" height="30" rx="15.0" fill="none" stroke="url(#accentGrad-dark)" stroke-width="1" opacity="0.55"/>
  <circle cx="14" cy="15.0" r="3" fill="url(#accentGrad-dark)">
    <animate attributeName="r" values="3;4;3" dur="2.4s" begin="4.12s" repeatCount="indefinite"/>
  </circle>
  <text x="24" y="19.5" font-family="Segoe UI, Arial, sans-serif" font-size="12.5" fill="#F8FAFC">React Native</text>
</g>
<g transform="translate(717.2,434)" opacity="1">
  <animate attributeName="opacity" values="0;0;1;1" keyTimes="0;0.3029;0.3329;1" dur="14s" begin="0s" repeatCount="indefinite" fill="freeze"/>
  <rect x="0" y="0" width="83.2" height="30" rx="15.0" fill="rgba(255,255,255,.05)" stroke="rgba(255,255,255,.12)" stroke-width="1"/>
  <rect x="0" y="0" width="83.2" height="30" rx="15.0" fill="none" stroke="url(#accentGrad-dark)" stroke-width="1" opacity="0.55"/>
  <circle cx="14" cy="15.0" r="3" fill="url(#accentGrad-dark)">
    <animate attributeName="r" values="3;4;3" dur="2.4s" begin="4.24s" repeatCount="indefinite"/>
  </circle>
  <text x="24" y="19.5" font-family="Segoe UI, Arial, sans-serif" font-size="12.5" fill="#F8FAFC">Node.js</text>
</g>
<g transform="translate(810.4000000000001,434)" opacity="1">
  <animate attributeName="opacity" values="0;0;1;1" keyTimes="0;0.3114;0.3414;1" dur="14s" begin="0s" repeatCount="indefinite" fill="freeze"/>
  <rect x="0" y="0" width="106.0" height="30" rx="15.0" fill="rgba(255,255,255,.05)" stroke="rgba(255,255,255,.12)" stroke-width="1"/>
  <rect x="0" y="0" width="106.0" height="30" rx="15.0" fill="none" stroke="url(#accentGrad-dark)" stroke-width="1" opacity="0.55"/>
  <circle cx="14" cy="15.0" r="3" fill="url(#accentGrad-dark)">
    <animate attributeName="r" values="3;4;3" dur="2.4s" begin="4.36s" repeatCount="indefinite"/>
  </circle>
  <text x="24" y="19.5" font-family="Segoe UI, Arial, sans-serif" font-size="12.5" fill="#F8FAFC">TypeScript</text>
</g>
<g transform="translate(926.4000000000001,434)" opacity="1">
  <animate attributeName="opacity" values="0;0;1;1" keyTimes="0;0.32;0.35;1" dur="14s" begin="0s" repeatCount="indefinite" fill="freeze"/>
  <rect x="0" y="0" width="90.8" height="30" rx="15.0" fill="rgba(255,255,255,.05)" stroke="rgba(255,255,255,.12)" stroke-width="1"/>
  <rect x="0" y="0" width="90.8" height="30" rx="15.0" fill="none" stroke="url(#accentGrad-dark)" stroke-width="1" opacity="0.55"/>
  <circle cx="14" cy="15.0" r="3" fill="url(#accentGrad-dark)">
    <animate attributeName="r" values="3;4;3" dur="2.4s" begin="4.48s" repeatCount="indefinite"/>
  </circle>
  <text x="24" y="19.5" font-family="Segoe UI, Arial, sans-serif" font-size="12.5" fill="#F8FAFC">Solidity</text>
</g>
<g transform="translate(1027.2,434)" opacity="1">
  <animate attributeName="opacity" values="0;0;1;1" keyTimes="0;0.3286;0.3586;1" dur="14s" begin="0s" repeatCount="indefinite" fill="freeze"/>
  <rect x="0" y="0" width="75.6" height="30" rx="15.0" fill="rgba(255,255,255,.05)" stroke="rgba(255,255,255,.12)" stroke-width="1"/>
  <rect x="0" y="0" width="75.6" height="30" rx="15.0" fill="none" stroke="url(#accentGrad-dark)" stroke-width="1" opacity="0.55"/>
  <circle cx="14" cy="15.0" r="3" fill="url(#accentGrad-dark)">
    <animate attributeName="r" values="3;4;3" dur="2.4s" begin="4.6s" repeatCount="indefinite"/>
  </circle>
  <text x="24" y="19.5" font-family="Segoe UI, Arial, sans-serif" font-size="12.5" fill="#F8FAFC">Python</text>
</g>
<g transform="translate(508,476)" opacity="1">
  <animate attributeName="opacity" values="0;0;1;1" keyTimes="0;0.3371;0.3671;1" dur="14s" begin="0s" repeatCount="indefinite" fill="freeze"/>
  <rect x="0" y="0" width="83.2" height="30" rx="15.0" fill="rgba(255,255,255,.05)" stroke="rgba(255,255,255,.12)" stroke-width="1"/>
  <rect x="0" y="0" width="83.2" height="30" rx="15.0" fill="none" stroke="url(#accentGrad-dark)" stroke-width="1" opacity="0.55"/>
  <circle cx="14" cy="15.0" r="3" fill="url(#accentGrad-dark)">
    <animate attributeName="r" values="3;4;3" dur="2.4s" begin="4.72s" repeatCount="indefinite"/>
  </circle>
  <text x="24" y="19.5" font-family="Segoe UI, Arial, sans-serif" font-size="12.5" fill="#F8FAFC">Android</text>
</g>
<g transform="translate(601.2,476)" opacity="1">
  <animate attributeName="opacity" values="0;0;1;1" keyTimes="0;0.3457;0.3757;1" dur="14s" begin="0s" repeatCount="indefinite" fill="freeze"/>
  <rect x="0" y="0" width="90.8" height="30" rx="15.0" fill="rgba(255,255,255,.05)" stroke="rgba(255,255,255,.12)" stroke-width="1"/>
  <rect x="0" y="0" width="90.8" height="30" rx="15.0" fill="none" stroke="url(#accentGrad-dark)" stroke-width="1" opacity="0.55"/>
  <circle cx="14" cy="15.0" r="3" fill="url(#accentGrad-dark)">
    <animate attributeName="r" values="3;4;3" dur="2.4s" begin="4.84s" repeatCount="indefinite"/>
  </circle>
  <text x="24" y="19.5" font-family="Segoe UI, Arial, sans-serif" font-size="12.5" fill="#F8FAFC">Firebase</text>
</g>
<g transform="translate(702.0,476)" opacity="1">
  <animate attributeName="opacity" values="0;0;1;1" keyTimes="0;0.3543;0.3843;1" dur="14s" begin="0s" repeatCount="indefinite" fill="freeze"/>
  <rect x="0" y="0" width="52.8" height="30" rx="15.0" fill="rgba(255,255,255,.05)" stroke="rgba(255,255,255,.12)" stroke-width="1"/>
  <rect x="0" y="0" width="52.8" height="30" rx="15.0" fill="none" stroke="url(#accentGrad-dark)" stroke-width="1" opacity="0.55"/>
  <circle cx="14" cy="15.0" r="3" fill="url(#accentGrad-dark)">
    <animate attributeName="r" values="3;4;3" dur="2.4s" begin="4.96s" repeatCount="indefinite"/>
  </circle>
  <text x="24" y="19.5" font-family="Segoe UI, Arial, sans-serif" font-size="12.5" fill="#F8FAFC">Git</text>
</g>
<g transform="translate(764.8,476)" opacity="1">
  <animate attributeName="opacity" values="0;0;1;1" keyTimes="0;0.3629;0.3929;1" dur="14s" begin="0s" repeatCount="indefinite" fill="freeze"/>
  <rect x="0" y="0" width="60.4" height="30" rx="15.0" fill="rgba(255,255,255,.05)" stroke="rgba(255,255,255,.12)" stroke-width="1"/>
  <rect x="0" y="0" width="60.4" height="30" rx="15.0" fill="none" stroke="url(#accentGrad-dark)" stroke-width="1" opacity="0.55"/>
  <circle cx="14" cy="15.0" r="3" fill="url(#accentGrad-dark)">
    <animate attributeName="r" values="3;4;3" dur="2.4s" begin="5.08s" repeatCount="indefinite"/>
  </circle>
  <text x="24" y="19.5" font-family="Segoe UI, Arial, sans-serif" font-size="12.5" fill="#F8FAFC">IPFS</text>
</g>
<g transform="translate(835.1999999999999,476)" opacity="1">
  <animate attributeName="opacity" values="0;0;1;1" keyTimes="0;0.3714;0.4014;1" dur="14s" begin="0s" repeatCount="indefinite" fill="freeze"/>
  <rect x="0" y="0" width="68.0" height="30" rx="15.0" fill="rgba(255,255,255,.05)" stroke="rgba(255,255,255,.12)" stroke-width="1"/>
  <rect x="0" y="0" width="68.0" height="30" rx="15.0" fill="none" stroke="url(#accentGrad-dark)" stroke-width="1" opacity="0.55"/>
  <circle cx="14" cy="15.0" r="3" fill="url(#accentGrad-dark)">
    <animate attributeName="r" values="3;4;3" dur="2.4s" begin="5.2s" repeatCount="indefinite"/>
  </circle>
  <text x="24" y="19.5" font-family="Segoe UI, Arial, sans-serif" font-size="12.5" fill="#F8FAFC">Figma</text>
</g>
<g transform="translate(749.0,546)">
  <circle r="18" fill="rgba(255,255,255,.05)" stroke="rgba(255,255,255,.12)" stroke-width="1"/>
  <circle r="18" fill="none" stroke="url(#accentGrad-dark)" stroke-width="1" opacity="0.5">
    <animate attributeName="opacity" values="0.3;0.8;0.3" dur="3s" begin="0.0s" repeatCount="indefinite"/>
  </circle>
  <path d="M0,-11 a11,11 0 1,0 0.01,0 M-4,10 v-3 c-3,1 -4,-1 -4,-3 c0,-1.5 -1,-2 -1,-2 c-1,0 0,0 1,1 c1,1 2,1 3,0.5 c0,-1 0.5,-1.5 0.5,-1.5 c-3,0 -4,-1.5 -4,-4 c0,-1 0.3,-2 1,-2.5 c-0.1,-0.5 -0.5,-1.5 0.1,-2.5 c0,0 1,0 3,1.2 c1.7,-0.5 3.5,-0.5 5,0 c2,-1.2 3,-1.2 3,-1.2 c0.6,1 0.2,2 0.1,2.5 c0.7,0.7 1,1.5 1,2.5 c0,2.5 -1,4 -4,4 c0.4,0.4 0.7,1 0.7,2 v3" fill="none" stroke="#F8FAFC" stroke-width="1.4" stroke-linecap="round" stroke-linejoin="round" filter="url(#glow-dark)"/>
</g>
<g transform="translate(793.0,546)">
  <circle r="18" fill="rgba(255,255,255,.05)" stroke="rgba(255,255,255,.12)" stroke-width="1"/>
  <circle r="18" fill="none" stroke="url(#accentGrad-dark)" stroke-width="1" opacity="0.5">
    <animate attributeName="opacity" values="0.3;0.8;0.3" dur="3s" begin="0.3s" repeatCount="indefinite"/>
  </circle>
  <path d="M-9,-9 h18 v18 h-18 Z M-5,-3 v9 M-5,-7 v0.2 M0,6 v-5 c0,-2.5 5,-2.5 5,0 v5" fill="none" stroke="#F8FAFC" stroke-width="1.4" stroke-linecap="round" stroke-linejoin="round" filter="url(#glow-dark)"/>
</g>
<g transform="translate(837.0,546)">
  <circle r="18" fill="rgba(255,255,255,.05)" stroke="rgba(255,255,255,.12)" stroke-width="1"/>
  <circle r="18" fill="none" stroke="url(#accentGrad-dark)" stroke-width="1" opacity="0.5">
    <animate attributeName="opacity" values="0.3;0.8;0.3" dur="3s" begin="0.6s" repeatCount="indefinite"/>
  </circle>
  <path d="M9,-7 c-0.8,0.4 -1.6,0.6 -2.5,0.8 c0.9,-0.6 1.6,-1.4 1.9,-2.5 c-0.9,0.5 -1.8,0.9 -2.8,1.1 c-0.8,-0.9 -2,-1.4 -3.3,-1.4 c-2.5,0 -4.5,2 -4.5,4.5 c0,0.35 0,0.7 0.1,1 c-3.7,-0.2 -7,-2 -9.2,-4.7 c-0.4,0.7 -0.6,1.4 -0.6,2.3 c0,1.6 0.8,3 2,3.8 c-0.75,0 -1.4,-0.2 -2,-0.55 v0.1 c0,2.2 1.6,4 3.6,4.4 c-0.4,0.1 -0.8,0.15 -1.2,0.15 c-0.3,0 -0.6,0 -0.9,-0.1 c0.6,1.8 2.3,3.1 4.3,3.15 c-1.6,1.25 -3.6,2 -5.7,2 c-0.4,0 -0.7,0 -1.1,-0.06 c2,1.3 4.5,2.1 7.1,2.1 c8.5,0 13.2,-7 13.2,-13.2 c0,-0.2 0,-0.4 0,-0.6 c0.9,-0.6 1.7,-1.5 2.3,-2.4" fill="none" stroke="#F8FAFC" stroke-width="1.4" stroke-linecap="round" stroke-linejoin="round" filter="url(#glow-dark)"/>
</g>
<g transform="translate(881.0,546)">
  <circle r="18" fill="rgba(255,255,255,.05)" stroke="rgba(255,255,255,.12)" stroke-width="1"/>
  <circle r="18" fill="none" stroke="url(#accentGrad-dark)" stroke-width="1" opacity="0.5">
    <animate attributeName="opacity" values="0.3;0.8;0.3" dur="3s" begin="0.8999999999999999s" repeatCount="indefinite"/>
  </circle>
  <path d="M-9,-2 h18 M-9,-2 v-3 a2,2 0 0 1 2,-2 h4 a2,2 0 0 1 2,2 v3 M-11,-2 h22 v10 a2,2 0 0 1 -2,2 h-18 a2,2 0 0 1 -2,-2 Z" fill="none" stroke="#F8FAFC" stroke-width="1.4" stroke-linecap="round" stroke-linejoin="round" filter="url(#glow-dark)"/>
</g>
</g>
</g>
</svg>